<?xml version="1.0" standalone="no"?>
<!DOCTYPE svg PUBLIC "-//W3C//DTD SVG 20010904//EN"
 "http://www.w3.org/TR/2001/REC-SVG-20010904/DTD/svg10.dtd">
<svg version="1.0" xmlns="http://www.w3.org/2000/svg"
 width="1280.000000pt" height="1280.000000pt" viewBox="0 0 1280.000000 1280.000000"
 preserveAspectRatio="xMidYMid meet">

<g transform="translate(0.000000,1280.000000) scale(0.100000,-0.100000)"
fill="#000000" stroke="none">
<path d="M6105 10184 c-540 -53 -974 -176 -1414 -399 -1103 -559 -1868 -1620
-2045 -2835 -40 -276 -49 -659 -20 -932 165 -1598 1315 -2920 2875 -3302 533
-131 1140 -141 1678 -26 604 127 1158 395 1636 789 119 98 346 321 454 446
506 585 811 1288 903 2080 17 146 17 657 0 795 -35 289 -90 542 -167 779 -425
1299 -1525 2277 -2860 2540 -269 53 -375 63 -700 66 -165 2 -318 1 -340 -1z
m709 -1014 c162 -24 353 -72 521 -130 140 -48 421 -183 550 -265 298 -189 600
-475 801 -760 701 -991 679 -2333 -54 -3300 -346 -455 -830 -800 -1367 -975
-121 -39 -320 -90 -355 -90 -13 0 -15 36 -12 280 l3 279 42 11 c110 28 324
107 432 160 234 114 425 250 610 435 460 459 695 1079 654 1725 -44 708 -407
1336 -1004 1737 -731 491 -1717 492 -2463 3 -554 -363 -914 -936 -1003 -1600
-17 -122 -17 -438 0 -560 91 -679 474 -1272 1052 -1631 171 -107 440 -220 637
-269 l42 -11 0 -279 c0 -247 -2 -280 -16 -280 -8 0 -70 13 -137 29 -483 116
-926 359 -1284 705 -455 439 -740 989 -834 1608 -52 344 -31 753 56 1098 63
251 205 581 340 795 165 261 452 573 687 748 402 301 878 494 1348 546 52 6
111 13 130 15 98 11 491 -4 624 -24z m-198 -1535 c593 -104 1034 -627 1034
-1226 0 -347 -116 -632 -360 -880 -251 -255 -542 -379 -890 -379 -609 0 -1120
426 -1234 1029 -21 109 -21 332 -1 442 47 254 169 484 350 664 185 184 413
304 664 349 105 20 328 20 437 1z"/>
<path d="M6261 6914 c-329 -88 -489 -464 -328 -768 94 -178 290 -285 497 -273
389 24 614 424 437 776 -61 123 -196 230 -332 266 -73 19 -202 18 -274 -1z"/>
</g>
</svg>
