<?xml version="1.0" standalone="no"?>
<!DOCTYPE svg PUBLIC "-//W3C//DTD SVG 20010904//EN"
 "http://www.w3.org/TR/2001/REC-SVG-20010904/DTD/svg10.dtd">
<svg version="1.0" xmlns="http://www.w3.org/2000/svg"
 width="851.000000pt" height="851.000000pt" viewBox="0 0 851.000000 851.000000"
 preserveAspectRatio="xMidYMid meet">

<g transform="translate(0.000000,851.000000) scale(0.100000,-0.100000)"
fill="#000000" stroke="none">
<path d="M3980 6660 c-215 -30 -464 -112 -656 -218 -242 -133 -542 -418 -697
-662 -44 -70 -147 -275 -180 -360 -62 -159 -127 -475 -127 -621 0 -42 -3 -78
-6 -82 -4 -3 -32 19 -63 50 -98 97 -199 154 -346 195 -70 19 -106 22 -280 22
-172 0 -215 -3 -305 -22 -153 -33 -355 -104 -494 -174 -173 -87 -220 -120
-245 -174 -34 -71 -49 -144 -39 -180 4 -18 76 -170 158 -338 137 -282 151
-306 175 -306 21 0 30 -10 59 -72 19 -40 75 -161 126 -268 51 -107 134 -286
186 -398 152 -327 274 -576 287 -584 7 -4 21 -5 32 -2 38 11 160 57 215 81 30
14 69 27 86 30 l31 5 6 -60 c11 -101 41 -164 115 -241 37 -37 85 -78 108 -89
35 -18 44 -29 64 -84 30 -84 58 -126 111 -169 101 -83 139 -90 472 -90 311 0
344 6 427 72 l51 40 57 -28 57 -28 605 0 605 0 53 24 c57 26 82 54 103 116 7
22 16 44 20 48 3 5 53 22 110 38 57 17 160 52 229 79 167 65 170 66 170 43 0
-13 -16 -26 -50 -41 -89 -39 -152 -113 -184 -215 -5 -14 -18 -17 -91 -17 -72
0 -88 -3 -105 -20 -27 -27 -25 -46 9 -81 l29 -29 548 0 c618 0 632 1 699 68
39 39 56 88 58 168 l1 53 50 11 c27 6 50 9 51 8 1 -2 12 -23 24 -48 56 -111
144 -157 239 -126 83 28 142 104 142 183 0 39 -38 118 -72 150 -27 26 -88 53
-119 53 -19 0 -20 3 -14 53 9 65 8 63 46 71 17 3 71 22 120 42 107 43 130 42
257 -13 99 -42 128 -44 154 -12 67 85 122 207 328 724 295 742 500 1271 500
1289 0 25 -37 42 -174 80 -70 19 -131 37 -134 40 -3 3 3 34 12 68 44 155 29
298 -48 455 -93 190 -263 316 -468 349 -51 9 -122 14 -157 12 l-64 -3 -18 105
c-23 131 -41 179 -94 255 -91 128 -184 201 -309 241 -229 75 -432 25 -609
-149 l-86 -84 -76 93 c-277 336 -663 570 -1082 655 -86 17 -150 22 -318 25
-115 1 -239 -1 -275 -6z m465 -165 c91 -19 217 -61 298 -100 62 -30 73 -45 15
-21 -19 8 -88 29 -154 47 -109 29 -134 32 -309 35 l-190 4 28 -21 c29 -22 35
-50 13 -68 -7 -6 -46 -15 -87 -21 -148 -19 -366 -72 -405 -98 -5 -4 -16 -27
-23 -52 -27 -95 -156 -179 -258 -167 -48 5 -90 36 -95 69 -3 17 -10 14 -61
-26 -55 -42 -56 -45 -29 -44 43 1 52 -9 52 -55 0 -40 -28 -89 -85 -148 -8 -9
-15 -20 -15 -26 0 -6 -7 -14 -16 -17 -10 -4 -13 -13 -9 -25 6 -19 -17 -51 -37
-51 -6 0 -1 9 12 20 13 11 21 22 19 25 -11 10 -82 -72 -108 -123 -42 -84 -80
-196 -87 -257 -8 -69 -19 -84 -72 -96 -48 -10 -222 -93 -273 -130 l-32 -23 6
45 c28 203 213 558 405 774 282 320 622 499 1062 560 126 17 323 13 435 -10z
m-690 -370 c58 -57 7 -154 -81 -155 -65 0 -98 53 -70 112 32 66 107 88 151 43z
m2560 -96 c69 -13 159 -56 210 -100 27 -24 35 -39 35 -65 0 -37 -22 -99 -45
-124 -7 -8 -14 -18 -15 -22 0 -4 -3 -15 -6 -23 -4 -8 -4 -29 -2 -45 3 -17 1
-30 -4 -30 -4 0 -8 -7 -8 -16 0 -8 5 -12 11 -8 17 10 1 -50 -28 -106 -13 -26
-44 -66 -68 -90 -35 -34 -50 -42 -83 -43 -22 -1 -38 -5 -35 -9 2 -5 -3 -8 -12
-8 -25 0 -130 -57 -169 -91 l-36 -31 -10 27 c-5 14 -10 29 -10 33 0 4 -11 41
-24 82 -30 95 -82 208 -147 321 l-50 88 22 43 c30 58 124 149 184 178 93 45
188 58 290 39z m-1970 -374 c130 -34 248 -132 310 -258 31 -63 37 -87 41 -158
l5 -84 -25 30 c-14 17 -70 87 -126 157 -55 70 -105 130 -111 134 -19 11 -211
-189 -497 -520 l-94 -107 -25 33 c-66 88 -93 173 -93 293 0 145 43 250 144
351 96 96 205 142 341 143 39 1 97 -6 130 -14z m556 -152 c17 -35 29 -71 26
-81 -2 -11 -10 -2 -22 28 -11 25 -32 70 -48 100 -24 46 -25 51 -7 35 11 -10
34 -47 51 -82z m2194 -117 c166 -44 307 -175 371 -346 25 -65 25 -237 1 -308
-11 -31 -24 -51 -30 -49 -7 3 -81 22 -166 43 -119 30 -155 36 -159 26 -3 -10
-7 -10 -16 2 -18 25 -656 176 -739 176 -24 0 -39 -41 -112 -315 -51 -188 -45
-175 -77 -175 -15 0 -30 1 -33 3 -3 1 -7 92 -9 202 -4 171 -18 315 -42 427 -5
23 2 35 40 73 109 107 289 145 409 86 l42 -21 32 38 c45 54 129 110 199 132
71 23 216 26 289 6z m-2586 -240 c34 -43 61 -82 61 -87 0 -4 -86 -69 -191
-144 -128 -91 -197 -134 -208 -130 -10 3 -29 18 -43 33 l-26 27 80 95 c44 52
112 133 152 179 39 46 76 90 81 97 16 23 30 13 94 -70z m-1005 -18 c2 -7 8
-41 13 -75 9 -62 9 -62 -12 -45 -11 9 -23 21 -27 26 -16 23 -720 -132 -881
-193 l-29 -11 3 -247 3 -246 -38 -14 c-22 -7 -40 -12 -42 -11 -10 12 -34 276
-34 384 l0 134 68 31 c271 124 560 215 822 259 130 22 150 23 154 8z m1541 -3
c117 -14 531 -112 483 -114 -9 -1 -49 6 -89 14 l-73 16 -71 -71 -70 -70 -162
7 c-89 3 -167 9 -174 13 -8 6 -7 20 5 56 8 27 18 69 22 94 9 70 10 71 46 66
18 -3 56 -8 83 -11z m-325 -254 c0 -11 -22 -43 -48 -72 l-48 -52 -38 13 -39
12 33 27 c49 39 124 90 133 91 4 0 7 -9 7 -19z m885 -17 c55 -9 104 -20 109
-25 5 -5 26 -167 47 -361 l38 -352 -38 -45 c-100 -120 -149 -309 -122 -467 29
-164 153 -305 295 -333 27 -6 31 -11 34 -44 2 -20 0 -37 -5 -37 -4 0 -97 14
-205 32 l-198 32 0 31 c0 16 -7 134 -15 260 -8 127 -15 262 -15 301 0 39 -3
74 -7 77 -3 4 -30 -57 -59 -135 -98 -271 -101 -276 -112 -248 -19 49 -131 366
-145 410 l-15 45 -6 -35 c-35 -230 -47 -309 -57 -390 -7 -52 -16 -98 -21 -101
-7 -4 -357 57 -364 64 -4 3 16 170 22 189 3 9 63 72 135 139 71 67 129 125
129 128 0 3 -39 28 -85 55 -64 37 -85 54 -85 70 0 12 11 84 25 161 14 77 37
211 52 298 l26 157 -24 26 -24 26 203 -4 c194 -3 203 -4 207 -23 9 -50 46
-343 45 -364 0 -38 16 -12 28 44 6 28 27 127 47 220 35 163 35 171 19 199
l-16 28 28 -6 c16 -3 74 -13 129 -22z m-2380 -115 c6 -154 25 -382 32 -389 3
-3 7 0 10 5 3 10 238 359 285 424 l16 23 104 -83 c107 -86 201 -168 206 -181
2 -4 -10 -22 -27 -38 -17 -17 -84 -95 -149 -173 -66 -78 -158 -185 -205 -237
-47 -52 -82 -98 -78 -103 4 -4 59 -27 122 -51 194 -75 207 -82 229 -130 48
-101 218 -218 362 -248 57 -12 57 -12 63 -52 7 -50 21 -296 17 -296 -22 0
-713 399 -881 509 l-24 15 6 -84 c3 -47 13 -146 21 -220 9 -74 16 -151 16
-171 l0 -36 -135 -23 c-74 -13 -137 -21 -140 -18 -3 2 -8 39 -13 82 -8 72 -7
79 16 112 35 53 79 151 97 219 23 88 22 265 -2 336 -35 104 -101 189 -195 252
-18 12 -30 103 -45 346 l-6 103 -46 -5 c-25 -3 -60 -9 -77 -12 -29 -6 -32 -5
-38 25 -3 18 -6 54 -6 80 l0 47 98 23 c135 32 356 78 360 75 1 -1 5 -58 7
-126z m-1385 96 c203 -49 335 -146 416 -306 88 -175 85 -343 -8 -498 -67 -112
-225 -287 -340 -379 -32 -25 -58 -49 -58 -53 0 -4 22 -75 49 -156 130 -395
151 -463 151 -477 0 -8 -21 -23 -52 -34 -29 -11 -95 -37 -147 -56 -52 -20 -98
-33 -102 -29 -4 4 -51 109 -104 233 -54 124 -176 398 -272 610 -96 212 -184
408 -195 435 -11 28 -22 53 -26 57 -4 3 -25 -2 -46 -13 -22 -10 -43 -19 -48
-19 -4 0 -58 99 -118 221 l-111 220 -54 -30 -55 -29 -15 21 c-20 28 -13 34
121 98 193 92 418 165 584 188 41 6 86 13 100 15 49 9 266 -4 330 -19z m4727
-80 c256 -61 408 -97 411 -100 2 -2 -2 -13 -8 -25 -9 -17 -7 -57 9 -183 39
-303 51 -412 57 -530 4 -65 10 -120 14 -122 3 -2 48 165 99 371 92 366 93 374
76 400 l-17 27 38 -6 c37 -6 243 -59 362 -93 59 -17 60 -29 3 -39 l-39 -6 -32
-102 c-31 -100 -491 -1501 -494 -1504 -1 -1 -249 79 -255 83 -2 2 4 121 14
266 23 362 33 611 25 621 -4 5 -10 -11 -14 -35 -19 -123 -135 -648 -145 -660
-5 -5 -270 47 -278 56 -2 1 0 38 4 82 6 72 9 81 37 104 112 91 207 219 256
345 20 51 24 79 24 185 1 122 0 127 -32 192 -22 45 -51 83 -88 116 l-54 49 29
129 c17 70 29 129 28 130 -1 1 -38 9 -81 18 -44 9 -81 18 -83 20 -2 2 5 43 17
90 l21 87 -21 29 c-27 38 -24 38 117 5z m-2145 -149 c97 -18 166 -55 247 -133
l64 -62 -111 -119 c-61 -65 -155 -156 -208 -203 -89 -77 -94 -84 -70 -87 31
-4 139 30 209 65 35 17 52 21 66 14 18 -10 182 -119 190 -127 14 -13 -165
-161 -241 -200 -158 -80 -362 -83 -525 -9 -169 77 -254 225 -240 415 9 123 57
220 154 311 83 78 166 119 279 138 72 12 100 12 186 -3z m1948 -368 c93 -28
176 -98 216 -182 76 -162 10 -394 -157 -552 -69 -65 -135 -103 -218 -126 -80
-22 -141 -23 -212 -2 -151 43 -249 174 -249 332 1 175 83 340 223 447 117 89
269 121 397 83z m-3555 -89 c62 -11 140 -55 187 -105 50 -54 81 -140 86 -235
12 -246 -128 -479 -337 -561 -78 -30 -204 -30 -281 0 -83 33 -153 99 -196 187
-32 65 -37 86 -42 167 -6 117 13 197 70 293 117 197 308 292 513 254z m1881
-958 c241 -50 497 -101 508 -101 3 0 6 -23 8 -52 l3 -52 113 -22 c63 -12 116
-25 119 -27 19 -19 -96 -172 -179 -238 -50 -39 -55 -41 -98 -34 -25 5 -60 8
-78 9 -31 1 -35 -2 -52 -47 -45 -116 -194 -251 -404 -362 -77 -41 -83 -42 -91
-15 -11 33 -90 107 -141 130 -69 32 -191 33 -253 2 l-44 -22 -67 63 c-55 53
-79 67 -139 87 -116 37 -219 20 -319 -54 l-59 -44 -13 37 c-7 20 -43 65 -79
101 -73 73 -128 98 -231 107 -54 5 -62 9 -80 38 -29 48 -101 110 -162 141
l-53 28 60 12 c33 6 178 35 322 64 l262 53 3 87 3 88 125 -68 c69 -37 207
-111 308 -164 l182 -98 125 77 125 76 0 125 c0 114 1 124 19 124 10 0 126 -22
257 -49z m-1831 -292 c36 -38 38 -41 15 -35 -14 3 -38 6 -55 6 -21 0 -43 12
-74 41 -24 22 -42 42 -40 43 2 2 18 8 34 13 35 12 56 0 120 -68z m-510 25 c33
-7 85 -14 115 -14 54 0 56 -1 98 -50 l44 -51 -42 -45 c-23 -25 -52 -69 -65
-98 -20 -46 -28 -54 -57 -60 -42 -8 -104 -40 -146 -77 -18 -16 -37 -29 -41
-29 -5 0 -12 18 -16 40 -7 39 -7 40 -50 40 -53 0 -75 8 -75 26 0 8 -2 14 -4
14 -2 0 -11 3 -20 6 -13 5 -15 -2 -10 -52 7 -89 12 -104 54 -166 25 -37 36
-65 33 -78 -8 -30 -22 -25 -69 24 -52 55 -84 136 -84 216 l0 60 83 41 c67 34
150 85 189 119 5 3 -1 38 -12 78 -24 87 -24 86 -2 77 9 -3 44 -13 77 -21z
m3895 -53 l115 -40 -2 -48 -2 -48 67 -29 c37 -16 99 -42 137 -58 109 -45 110
-50 16 -81 -139 -46 -288 -33 -379 33 -23 17 -42 27 -42 22 0 -19 92 -110 129
-127 23 -10 41 -21 41 -24 0 -4 -14 -23 -31 -44 -40 -49 -109 -80 -179 -81
-103 -2 -126 8 -209 93 -79 80 -154 121 -222 121 -16 0 -29 3 -29 8 0 8 250
248 283 271 17 12 171 70 187 71 3 0 57 -18 120 -39z m-524 6 c14 -14 -257
-264 -349 -322 -24 -16 -27 -16 -21 -1 3 9 9 16 13 16 18 0 158 153 194 212
11 18 22 35 26 38 3 3 17 21 30 41 23 34 26 35 63 29 21 -4 41 -10 44 -13z
m-2818 -132 c71 -30 128 -104 147 -188 4 -21 10 -27 21 -23 44 17 124 18 171
2 102 -34 163 -115 163 -219 l0 -56 30 5 c20 5 40 0 65 -15 l36 -21 15 35 c22
53 74 106 129 131 64 30 161 32 221 5 53 -24 120 -85 143 -129 15 -29 23 -35
59 -37 27 -2 45 2 53 11 33 40 132 56 192 30 46 -19 95 -79 108 -131 l11 -45
69 0 c75 0 90 -14 47 -44 -20 -14 -95 -16 -618 -16 -562 0 -597 1 -623 19 -39
25 -55 51 -63 100 -10 60 -20 67 -97 63 l-66 -4 21 -43 c27 -56 19 -106 -26
-151 -43 -43 -68 -46 -391 -42 -255 3 -272 4 -311 25 -125 67 -169 233 -96
366 42 78 118 126 212 134 l57 6 6 52 c8 82 79 169 153 188 42 10 127 6 162
-8z m2838 -309 c81 -38 134 -122 134 -213 l0 -48 60 -2 c67 -1 87 -12 107 -60
11 -28 11 -38 -2 -68 -26 -64 -34 -65 -495 -65 -384 0 -410 1 -410 18 0 28 37
81 72 102 24 14 51 20 96 20 l62 0 0 63 c0 119 48 204 142 251 70 35 161 36
234 2z m775 -185 c22 -18 22 -19 6 -45 -18 -26 -51 -40 -84 -34 -26 5 -28 49
-3 76 25 27 50 28 81 3z"/>
<path d="M2943 5782 c-29 -42 -70 -115 -93 -162 -43 -89 -46 -126 -16 -185 11
-21 13 -18 30 44 9 36 37 107 62 157 24 51 44 106 44 123 0 18 7 46 16 62 29
58 8 38 -43 -39z"/>
<path d="M2800 5490 c-6 -18 -5 -50 2 -50 4 0 8 -10 9 -22 0 -13 3 -18 5 -12
2 6 0 28 -5 50 -5 21 -10 37 -11 34z"/>
<path d="M1661 4321 c-11 -7 -6 -37 29 -167 23 -88 54 -204 68 -259 14 -55 27
-102 29 -104 5 -8 79 52 126 103 97 104 128 210 88 302 -46 102 -101 134 -236
134 -49 0 -96 -4 -104 -9z"/>
<path d="M4222 4429 c-115 -23 -212 -137 -212 -248 0 -65 20 -111 67 -157 25
-24 51 -44 58 -44 11 0 122 122 208 230 16 19 46 54 68 77 43 46 43 58 -3 99
-48 44 -112 59 -186 43z"/>
<path d="M6154 4204 c-97 -35 -184 -156 -184 -258 0 -107 41 -176 131 -222 94
-47 198 -29 274 49 55 56 75 106 75 178 -1 46 -28 123 -29 84 -1 -11 -10 -34
-21 -52 -44 -73 -150 -84 -202 -22 -23 27 -28 43 -28 87 0 62 22 107 73 147
l32 25 -40 -1 c-22 0 -59 -7 -81 -15z"/>
<path d="M2663 4116 c-124 -39 -204 -159 -189 -284 8 -70 35 -121 88 -166 150
-129 379 -16 378 186 -1 35 -7 74 -14 87 l-13 24 -11 -30 c-13 -40 -59 -82
-98 -89 -69 -13 -144 51 -144 124 0 40 11 63 57 120 33 41 34 42 11 41 -13 0
-42 -6 -65 -13z"/>
<path d="M3058 2798 c14 -18 52 -31 52 -18 0 4 -8 10 -17 14 -10 3 -25 9 -33
13 -13 5 -13 4 -2 -9z"/>
<path d="M3138 2794 c13 -9 26 -13 30 -9 8 8 -17 25 -38 25 -9 0 -6 -6 8 -16z"/>
<path d="M3210 2766 c0 -2 7 -7 16 -10 8 -3 12 -2 9 4 -6 10 -25 14 -25 6z"/>
<path d="M3240 2714 c0 -9 40 -23 44 -15 3 5 -5 11 -19 13 -14 3 -25 4 -25 2z"/>
<path d="M3330 2700 c0 -5 7 -7 15 -4 8 4 15 8 15 10 0 2 -7 4 -15 4 -8 0 -15
-4 -15 -10z"/>
<path d="M2868 6509 c-35 -20 -17 -89 23 -89 44 0 67 70 30 90 -24 12 -31 12
-53 -1z"/>
<path d="M2379 6490 c-141 -24 -239 -140 -239 -283 0 -78 15 -120 68 -189 101
-133 310 -140 419 -13 63 72 77 110 77 205 1 97 -16 140 -80 204 -67 67 -148
93 -245 76z m137 -142 c36 -25 77 -90 72 -114 -2 -13 -11 -10 -41 15 l-39 30
-31 -32 c-26 -26 -101 -78 -139 -95 -4 -2 -10 19 -14 47 -6 48 -8 51 -35 51
-16 0 -29 3 -29 7 0 15 55 76 84 94 45 27 130 26 172 -3z"/>
<path d="M6278 6429 c-28 -16 -23 -67 7 -81 49 -22 95 24 67 69 -11 17 -54 24
-74 12z"/>
<path d="M5704 6420 c-61 -25 -86 -129 -44 -183 29 -36 79 -51 129 -37 99 27
111 169 17 214 -37 17 -69 19 -102 6z"/>
<path d="M6612 6344 c-57 -40 -69 -128 -24 -174 93 -93 239 2 192 124 -21 55
-119 85 -168 50z"/>
<path d="M1802 6314 c-24 -17 -30 -62 -10 -82 7 -7 26 -12 43 -12 17 0 36 5
43 12 18 18 14 63 -6 81 -23 21 -41 21 -70 1z"/>
<path d="M7025 6216 c-19 -29 -10 -54 23 -63 31 -7 56 7 60 36 8 50 -55 70
-83 27z"/>
<path d="M1802 5984 c-61 -16 -99 -35 -155 -75 l-39 -29 -44 38 c-126 112
-327 71 -407 -83 -13 -26 -22 -66 -25 -118 l-5 -77 -101 -52 c-85 -43 -115
-66 -192 -142 -99 -100 -146 -177 -184 -304 -19 -62 -21 -90 -18 -185 3 -62
10 -124 16 -138 9 -24 14 -26 44 -20 l33 7 -3 70 c-13 266 166 538 411 624
153 54 309 46 469 -24 14 -7 16 -2 11 33 -5 39 8 58 20 29 4 -10 6 -10 6 0 1
8 -8 16 -19 19 -49 13 -8 155 66 228 47 46 147 95 193 95 l34 0 -7 52 c-4 28
-9 55 -12 60 -7 11 -30 9 -92 -8z m-365 -125 c14 -14 0 -74 -24 -102 -42 -50
-57 -59 -90 -52 -29 5 -33 3 -33 -15 0 -31 -27 -24 -39 11 -6 18 -11 39 -11
48 0 28 34 81 65 101 33 22 114 27 132 9z"/>
<path d="M7055 5890 c-49 -60 -91 -118 -92 -127 -4 -23 168 -203 193 -203 19
0 204 183 204 201 0 13 -191 233 -204 236 -6 1 -51 -47 -101 -107z m139 -64
c20 -23 36 -50 36 -58 0 -7 -17 -30 -37 -50 l-38 -36 -42 38 c-24 21 -43 42
-43 47 0 13 71 103 81 103 4 0 24 -20 43 -44z"/>
<path d="M1272 5228 c-18 -18 -14 -73 6 -91 56 -51 140 34 86 87 -18 19 -75
21 -92 4z"/>
<path d="M850 3172 c-22 -10 -42 -32 -54 -56 -17 -36 -18 -43 -5 -80 16 -48
67 -86 113 -86 36 0 84 29 102 62 32 56 1 138 -61 164 -44 18 -53 18 -95 -4z"/>
<path d="M7520 3097 c-51 -26 -29 -117 28 -117 34 0 72 37 72 68 0 26 -33 62
-57 62 -10 0 -29 -6 -43 -13z"/>
<path d="M1090 2660 c-38 -38 -15 -102 42 -116 21 -4 33 0 52 20 33 32 33 60
1 91 -29 30 -68 32 -95 5z"/>
<path d="M7340 2640 c-9 -6 -10 -10 -3 -10 6 0 15 5 18 10 8 12 4 12 -15 0z"/>
<path d="M1675 2288 c-43 -62 -88 -126 -101 -141 -30 -36 -30 -49 -1 -83 23
-26 25 -26 193 -34 141 -6 176 -10 214 -28 24 -11 48 -19 52 -16 15 10 -33
104 -129 255 -129 200 -124 199 -228 47z m85 -18 c0 -26 -65 -127 -89 -140
-27 -14 -54 -13 -48 3 3 7 31 47 62 90 55 74 75 87 75 47z"/>
<path d="M7030 2310 c-23 -23 -24 -33 -10 -61 12 -22 59 -26 78 -7 19 19 14
55 -10 72 -29 20 -34 20 -58 -4z"/>
<path d="M3275 407 c-45 -25 -85 -92 -85 -142 1 -46 34 -109 71 -136 l34 -24
943 -3 c861 -2 946 -1 978 14 119 57 122 232 4 292 l-44 22 -931 0 -930 0 -40
-23z m1949 -16 c88 -58 89 -197 1 -251 -32 -20 -47 -20 -976 -20 l-943 0 -33
23 c-41 28 -63 72 -63 129 0 57 33 105 90 130 8 4 438 7 955 7 905 1 941 0
969 -18z"/>
<path d="M3252 314 c-26 -18 -30 -75 -7 -94 20 -17 64 -16 80 1 27 29 27 57 1
84 -29 29 -43 31 -74 9z m62 -20 c20 -20 20 -38 0 -59 -20 -20 -42 -16 -60 10
-12 18 -11 24 2 43 18 26 37 28 58 6z"/>
<path d="M3267 293 c-4 -3 -7 -17 -7 -30 0 -27 26 -41 43 -24 8 8 7 11 -6 11
-9 0 -17 7 -17 15 0 8 7 15 16 15 8 0 12 5 9 10 -7 11 -28 13 -38 3z"/>
<path d="M3410 266 l0 -56 39 0 c41 0 68 21 55 42 -4 7 -8 24 -8 38 -1 22 -6
25 -43 28 l-43 3 0 -55z m55 24 c3 -5 1 -10 -4 -10 -6 0 -11 5 -11 10 0 6 2
10 4 10 3 0 8 -4 11 -10z m5 -50 c0 -5 -4 -10 -10 -10 -5 0 -10 5 -10 10 0 6
5 10 10 10 6 0 10 -4 10 -10z"/>
<path d="M3520 313 c1 -5 7 -19 15 -33 8 -14 14 -35 15 -47 0 -38 25 -26 38
20 7 23 15 48 18 55 3 6 -1 12 -9 12 -8 0 -18 -8 -22 -17 -6 -17 -7 -17 -16 0
-10 17 -39 24 -39 10z"/>
<path d="M3674 303 c3 -10 8 -35 12 -55 8 -46 35 -51 51 -10 10 25 11 25 12 4
1 -27 29 -41 42 -21 4 7 11 31 15 53 7 44 19 34 29 -26 8 -47 39 -53 50 -10
l8 27 6 -25 c11 -41 38 -37 50 7 15 52 14 73 -4 73 -9 0 -15 -10 -15 -26 0
-14 -4 -23 -10 -19 -5 3 -10 15 -10 26 0 29 -27 23 -37 -8 l-10 -28 -6 28 c-6
23 -13 27 -42 27 -31 0 -35 -3 -35 -26 0 -14 -4 -23 -10 -19 -5 3 -10 15 -10
26 0 29 -27 23 -37 -8 l-10 -28 -6 28 c-4 15 -14 27 -23 27 -10 0 -14 -6 -10
-17z"/>
<path d="M3974 294 c4 -15 10 -39 13 -55 7 -38 38 -39 48 -1 l8 27 6 -25 c11
-41 38 -37 50 7 15 52 14 73 -4 73 -9 0 -15 -10 -15 -26 0 -14 -4 -23 -10 -19
-5 3 -10 15 -10 26 0 29 -32 20 -41 -11 l-6 -25 -8 28 c-10 36 -40 38 -31 1z"/>
<path d="M4170 310 c0 -6 7 -13 15 -16 10 -4 15 -20 15 -45 0 -57 28 -54 32 4
2 27 7 41 16 40 6 -2 12 4 12 12 0 11 -12 15 -45 15 -25 0 -45 -5 -45 -10z"/>
<path d="M4282 308 c-7 -7 -12 -26 -12 -43 0 -36 15 -55 45 -55 30 0 45 19 45
55 0 36 -15 55 -45 55 -12 0 -26 -5 -33 -12z m46 -49 c-1 -13 -7 -23 -13 -22
-13 3 -18 30 -11 50 10 24 29 1 24 -28z"/>
<path d="M4380 265 c0 -42 3 -55 15 -55 8 0 15 9 15 19 0 12 8 21 21 23 27 4
44 30 36 52 -4 11 -19 16 -47 16 l-40 0 0 -55z m60 21 c0 -11 -19 -15 -25 -6
-3 5 1 10 9 10 9 0 16 -2 16 -4z"/>
<path d="M4490 265 c0 -42 3 -55 15 -55 8 0 15 9 15 19 0 12 8 21 21 23 58 8
43 68 -17 68 l-34 0 0 -55z m50 26 c0 -6 -4 -13 -10 -16 -5 -3 -10 1 -10 9 0
9 5 16 10 16 6 0 10 -4 10 -9z"/>
<path d="M4590 265 c0 -42 3 -55 15 -55 8 0 15 9 15 20 0 11 3 20 8 20 4 0 13
-9 20 -20 24 -39 42 -25 42 35 0 41 -4 55 -14 55 -8 0 -16 -12 -18 -27 l-4
-28 -14 28 c-7 15 -21 27 -32 27 -15 0 -18 -8 -18 -55z"/>
<path d="M4721 306 c-7 -8 -11 -32 -9 -53 3 -37 4 -38 43 -38 36 0 40 3 43 28
3 22 -1 27 -18 27 -12 0 -20 -6 -18 -12 2 -7 -2 -14 -7 -15 -6 -2 -10 9 -10
25 0 24 3 27 30 24 26 -4 28 -2 16 12 -17 20 -55 21 -70 2z"/>
<path d="M4885 306 c-3 -9 -7 -23 -10 -31 -2 -8 0 -27 5 -41 8 -21 15 -25 42
-22 17 2 34 9 36 17 4 11 -2 12 -22 7 -26 -6 -27 -5 -24 26 3 28 6 33 27 30
16 -3 22 1 19 10 -7 20 -67 23 -73 4z"/>
<path d="M4992 308 c-7 -7 -12 -26 -12 -43 0 -38 16 -55 51 -55 28 0 39 15 39
55 0 13 -3 30 -6 39 -7 19 -55 21 -72 4z m46 -49 c-1 -13 -7 -23 -13 -22 -13
3 -18 30 -11 50 10 24 29 1 24 -28z"/>
<path d="M5090 265 c0 -42 3 -55 15 -55 8 0 15 8 15 18 0 14 2 14 9 3 5 -8 16
-11 25 -8 9 4 16 2 16 -3 0 -6 9 -10 20 -10 18 0 20 7 20 55 0 47 -3 55 -18
55 -11 0 -24 -12 -31 -27 l-13 -28 -14 28 c-25 47 -44 35 -44 -28z"/>
<path d="M4120 225 c0 -8 7 -15 15 -15 8 0 15 7 15 15 0 8 -7 15 -15 15 -8 0
-15 -7 -15 -15z"/>
<path d="M4820 225 c0 -10 7 -15 18 -13 21 4 19 22 -2 26 -10 2 -16 -3 -16
-13z"/>
</g>
</svg>
