<?xml version="1.0" standalone="no"?>
<!DOCTYPE svg PUBLIC "-//W3C//DTD SVG 20010904//EN"
 "http://www.w3.org/TR/2001/REC-SVG-20010904/DTD/svg10.dtd">
<svg version="1.0" xmlns="http://www.w3.org/2000/svg"
 width="860.000000pt" height="681.000000pt" viewBox="0 0 860.000000 681.000000"
 preserveAspectRatio="xMidYMid meet">

<g transform="translate(0.000000,681.000000) scale(0.100000,-0.100000)"
fill="#000000" stroke="none">
<path d="M1700 6399 c-120 -23 -278 -146 -342 -265 -74 -137 -75 -296 -5 -444
27 -57 71 -106 346 -385 174 -176 397 -403 497 -505 l182 -185 -63 -105 c-182
-299 -280 -645 -292 -1035 -9 -286 26 -544 108 -790 45 -137 135 -325 207
-434 l49 -74 -151 -145 c-83 -80 -309 -304 -502 -496 -389 -388 -400 -403
-425 -552 -38 -229 125 -483 358 -557 165 -53 335 -15 468 106 52 47 296 296
797 814 l137 142 88 -55 c255 -161 534 -256 861 -294 120 -14 430 -14 558 0
326 36 627 140 879 304 l84 55 258 -272 c407 -428 641 -669 691 -710 155 -129
362 -152 536 -59 78 41 187 155 224 232 76 162 65 331 -31 476 -17 27 -250
265 -516 530 l-485 481 51 79 c166 260 267 554 303 889 13 119 13 381 -1 503
-34 320 -142 639 -300 895 -27 43 -49 82 -49 85 0 4 216 223 480 487 265 264
496 503 514 530 40 61 71 142 80 212 16 127 -40 285 -137 386 -112 116 -228
163 -381 155 -81 -4 -103 -10 -172 -43 -94 -45 -157 -105 -708 -666 l-370
-377 -70 46 c-99 64 -333 175 -446 212 -527 174 -1079 151 -1588 -67 -106 -45
-232 -112 -308 -164 l-40 -27 -430 440 c-448 460 -550 556 -631 601 -95 51
-204 67 -313 46z m2815 -1704 c193 -31 367 -101 522 -207 101 -69 284 -252
348 -348 152 -229 218 -451 219 -735 0 -405 -144 -722 -453 -997 -167 -149
-370 -249 -599 -295 -121 -24 -394 -24 -515 0 -251 50 -467 166 -653 352 -265
264 -387 560 -387 940 0 171 18 291 64 429 145 433 548 786 979 856 41 6 82
13 90 15 49 9 308 3 385 -10z"/>
<path d="M4210 3869 c-65 -11 -160 -55 -214 -100 -63 -53 -124 -144 -147 -221
-17 -56 -20 -87 -17 -171 6 -131 38 -208 128 -301 96 -100 203 -146 340 -146
183 0 347 103 428 270 37 74 37 76 37 200 0 148 -17 201 -93 295 -110 138
-287 204 -462 174z m230 -181 c177 -90 90 -353 -107 -323 -39 6 -56 15 -90 50
-67 70 -71 163 -10 232 58 66 130 80 207 41z"/>
</g>
</svg>
