<?xml version="1.0" standalone="no"?>
<!DOCTYPE svg PUBLIC "-//W3C//DTD SVG 20010904//EN"
 "http://www.w3.org/TR/2001/REC-SVG-20010904/DTD/svg10.dtd">
<svg version="1.0" xmlns="http://www.w3.org/2000/svg"
 width="728.000000pt" height="548.000000pt" viewBox="0 0 728.000000 548.000000"
 preserveAspectRatio="xMidYMid meet">

<g transform="translate(0.000000,548.000000) scale(0.100000,-0.100000)"
fill="#000000" stroke="none">
<path d="M740 5215 c0 -6 1 -8 44 -95 15 -31 63 -94 111 -145 46 -49 84 -93
85 -97 0 -5 -8 -8 -17 -8 -12 0 -6 -11 22 -40 21 -22 36 -43 32 -46 -8 -8 -83
36 -127 76 -30 27 -184 137 -229 164 -14 9 -14 7 -1 -10 42 -56 205 -251 220
-265 19 -17 54 -79 48 -85 -10 -9 -197 134 -285 220 -29 27 -55 48 -57 45 -3
-2 22 -34 54 -69 103 -115 132 -150 127 -150 -3 0 -23 10 -44 21 -29 17 -19 3
47 -59 47 -45 80 -81 73 -82 -6 0 -32 9 -58 20 -60 26 -66 25 -29 -2 74 -55
234 -216 234 -235 0 -7 -2 -13 -6 -13 -11 0 -125 65 -143 81 -21 20 -144 107
-186 132 l-30 18 30 -26 c17 -15 50 -46 75 -68 47 -43 223 -187 348 -285 41
-31 81 -64 90 -72 10 -8 86 -69 170 -134 83 -66 152 -123 152 -128 0 -4 6 -8
13 -8 7 0 26 -13 43 -28 16 -16 105 -87 199 -158 93 -71 177 -136 187 -144 21
-19 16 -15 173 -135 72 -54 141 -109 155 -121 14 -13 44 -38 67 -56 76 -61
267 -227 363 -317 l94 -88 -29 -44 c-31 -45 -135 -153 -309 -319 -54 -52 -106
-105 -115 -116 -9 -12 -50 -58 -91 -103 -41 -44 -78 -88 -83 -96 -20 -36 -293
-325 -433 -458 -65 -63 -228 -233 -361 -378 -232 -254 -512 -525 -698 -676
-37 -30 -32 -28 60 17 55 28 103 49 107 48 4 -2 -5 -17 -20 -33 -15 -17 -34
-39 -42 -50 -15 -19 -15 -19 10 -2 126 87 167 107 192 90 7 -4 36 -8 63 -8 43
0 50 -2 47 -19 -3 -15 1 -17 15 -11 41 16 121 28 146 21 24 -6 27 -11 27 -46
0 -21 -5 -42 -10 -45 -19 -12 -10 -22 15 -17 45 8 28 -20 -65 -113 -49 -49
-90 -93 -90 -97 0 -3 25 9 56 27 31 19 62 32 67 28 6 -4 -16 -30 -49 -59 -32
-30 -54 -54 -48 -54 5 0 14 4 20 9 5 5 47 28 94 52 81 40 406 217 480 261 52
32 206 141 285 204 39 30 106 83 149 117 44 34 87 69 95 78 9 8 95 80 191 160
157 129 236 195 323 270 44 37 141 130 414 395 320 312 340 329 362 311 19
-16 305 -253 340 -282 13 -11 65 -56 115 -100 50 -44 184 -157 298 -252 113
-95 209 -177 212 -182 4 -5 43 -38 89 -72 45 -34 170 -133 277 -219 219 -175
345 -270 359 -270 5 0 11 -3 13 -7 2 -5 41 -32 88 -62 47 -30 95 -64 107 -75
13 -11 26 -16 30 -11 5 4 2 10 -4 12 -7 3 -13 9 -13 15 0 5 26 -5 58 -23 31
-18 82 -46 112 -62 30 -16 59 -34 65 -38 5 -5 13 -9 18 -9 11 0 -6 16 -76 69
-60 46 -73 70 -15 29 18 -12 35 -25 38 -28 16 -16 153 -101 156 -97 3 3 -8 14
-23 26 -15 11 -33 25 -40 31 -7 5 -16 10 -21 10 -5 0 -17 9 -27 20 -11 12 -59
51 -107 87 -49 36 -86 68 -84 71 6 5 169 -98 174 -110 2 -5 9 -8 16 -8 7 0 21
-8 32 -17 18 -17 65 -49 129 -88 l30 -18 -25 24 c-14 14 -70 56 -125 94 -176
121 -200 138 -205 145 -5 6 -36 29 -155 112 -62 43 -91 68 -80 68 6 0 19 -6
30 -14 11 -7 36 -23 55 -34 63 -36 345 -214 350 -221 3 -4 12 -10 20 -14 8 -4
62 -38 120 -76 58 -38 148 -95 200 -127 52 -33 97 -62 100 -65 3 -4 23 -17 45
-28 22 -12 47 -26 55 -31 106 -66 281 -170 287 -170 3 0 -4 11 -17 25 -13 14
-20 25 -16 25 12 0 126 -63 145 -81 17 -16 55 -39 65 -39 3 0 3 7 0 15 -8 20
4 19 49 -5 37 -20 37 -20 25 -1 -19 30 -4 35 52 16 83 -28 166 -3 141 42 -5
11 -66 61 -135 113 -69 51 -126 97 -126 102 0 4 -5 8 -11 8 -7 0 -17 6 -23 14
-10 13 -385 313 -432 346 -12 8 -45 36 -75 61 -30 26 -88 75 -129 110 -207
176 -807 767 -852 839 -19 30 -85 105 -146 166 -62 61 -112 115 -112 120 0 6
-8 19 -17 30 -10 10 -31 39 -47 63 -16 25 -181 195 -367 379 -187 184 -339
338 -339 342 0 8 51 68 115 135 22 23 51 55 65 71 14 16 68 79 121 139 155
178 407 480 518 620 56 72 114 144 129 160 14 17 80 100 146 185 65 85 122
157 125 160 11 8 101 143 197 295 76 122 323 465 361 503 22 23 35 53 29 69
-12 30 -254 -2 -276 -36 -3 -5 -54 -32 -113 -61 l-109 -53 -84 6 c-76 4 -88 2
-117 -17 -61 -42 -142 -100 -147 -106 -9 -11 -96 -50 -112 -50 -9 0 -51 -30
-94 -68 -44 -37 -100 -80 -126 -95 -26 -15 -66 -50 -89 -77 -23 -28 -44 -48
-46 -46 -6 6 47 99 61 108 6 4 8 10 4 13 -3 3 -20 -12 -38 -35 -17 -22 -66
-70 -108 -107 -65 -56 -243 -218 -471 -428 -107 -99 -236 -234 -284 -297 -15
-20 -47 -51 -71 -68 -24 -18 -61 -57 -82 -87 -65 -95 -103 -103 -194 -43 -75
50 -210 123 -216 118 -4 -4 42 -48 94 -90 7 -5 11 -13 7 -16 -11 -11 -176 82
-228 129 -91 83 -208 182 -357 303 -80 65 -152 126 -161 135 -9 9 -67 54 -129
101 -113 86 -218 167 -255 198 -22 18 -331 224 -355 236 -8 4 0 -6 18 -23 44
-42 24 -39 -65 10 -119 66 -95 38 39 -45 68 -41 134 -85 148 -96 14 -11 79
-60 146 -108 66 -48 133 -97 149 -110 50 -40 20 -33 -46 11 -35 24 -93 61
-129 82 -36 22 -74 47 -84 57 -11 10 -23 18 -27 18 -4 0 -43 21 -86 46 -43 26
-256 135 -473 244 -384 191 -440 220 -450 230 -3 3 -27 23 -54 44 -56 45 -49
18 9 -32 19 -17 35 -34 35 -37 0 -21 -122 37 -227 108 -46 31 -83 54 -83 52z
m3750 -2706 c0 -4 -36 29 -80 73 -44 44 -80 83 -80 86 0 4 36 -29 80 -73 44
-44 80 -83 80 -86z m46 -40 c20 -22 23 -28 8 -19 -18 11 -50 50 -41 50 2 0 16
-14 33 -31z m524 -1267 c114 -83 121 -94 15 -26 -49 32 -135 104 -105 88 8 -4
49 -32 90 -62z"/>
<path d="M5922 494 c10 -10 20 -15 24 -12 3 4 -5 12 -18 18 -22 12 -22 12 -6
-6z"/>
</g>
</svg>
